<?xml version="1.0" encoding="UTF-8"?>
<!-- Generator: visioncortex VTracer 0.6.3 -->
<svg version="1.1" xmlns="http://www.w3.org/2000/svg" width="1280" height="1280">
<path d="M0 0 C1 1 1 1 1.1 2.85 C1.07 4.9 1.03 6.95 1 9 C1.86 8.8 2.72 8.6 3.6 8.39 C63.32 -5.49 63.32 -5.49 90 8.7 C93.34 10.87 95.25 13.49 97 17 C97.37 22.52 96.26 26.24 92.62 30.44 C90.49 32.69 88.61 34.26 86 36 C86.62 36.01 87.25 36.03 87.89 36.04 C122.06 36.94 122.06 36.94 132 46 C136.69 50.99 139.94 56.09 140.03 63.16 C139.33 73.59 133.54 81.08 126 88 C123.39 89.77 120.72 91.41 118 93 C118.51 93.29 119.01 93.57 119.54 93.87 C158.84 116.11 158.84 116.11 163 131 C163.43 135.89 163.69 140.75 161 145 C157.58 148.37 154 151.34 150 154 C150.79 154.55 151.57 155.09 152.38 155.65 C162.05 162.59 170.04 169.98 173 182 C173.81 188.47 173.78 194.54 170.38 200.26 C165.16 206.84 157.51 209.78 150 213 C148.66 213.66 147.33 214.32 146 215 C146.93 215.56 147.86 216.11 148.82 216.69 C155.93 221.04 162.06 225.12 167 232 C167.64 232.8 168.28 233.61 168.94 234.44 C170.57 238.38 170.86 241.82 170 246 C166.85 252.14 162.13 256.64 155.53 258.81 C147.66 260.94 140.38 261.4 132.25 261.25 C131.08 261.24 129.92 261.24 128.71 261.23 C122.73 261.18 116.92 260.9 111 260 C111.08 260.87 111.17 261.73 111.25 262.62 C110.84 268.15 107.84 271.4 103.88 275 C95.92 281.45 85.55 288 75 288 C77.61 290.88 80.64 292.85 83.88 295 C91.03 299.84 97.48 305.35 104 311 C105.05 311.86 106.11 312.73 107.16 313.59 C109.5 315.57 111.47 317.48 113.44 319.81 C116.47 323.38 119.57 326.87 122.71 330.34 C124 332 124 332 124 334 C124.66 334 125.32 334 126 334 C126.48 334.92 126.96 335.84 127.46 336.79 C129.67 340.95 132.02 344.38 136 347 C144.35 349.56 153.63 348.71 162.25 348.55 C164.84 348.55 167.43 348.55 170.02 348.55 C175.43 348.55 180.84 348.5 186.25 348.42 C192.48 348.33 198.72 348.3 204.95 348.32 C210.98 348.34 217 348.31 223.03 348.27 C225.58 348.25 228.13 348.24 230.69 348.24 C234.26 348.24 237.83 348.18 241.4 348.11 C242.97 348.13 242.97 348.13 244.57 348.14 C251.63 347.93 255.18 346 260.2 341.05 C262.66 338.24 264.45 335.53 266.25 332.25 C269.5 326.39 269.5 326.39 272.54 324.02 C275.64 321.47 276.6 319.05 278.19 315.38 C282.44 306.25 288.94 298.17 298.65 294.55 C305.99 292.83 313.34 293.34 320 297 C320.89 297.74 321.77 298.49 322.69 299.25 C324.88 301.3 324.88 301.3 327.69 300.81 C329.99 300.06 329.99 300.06 332 299 C339.47 298.64 339.47 298.64 343 301 C345.59 300.87 345.59 300.87 348.38 300.38 C353.61 299.82 353.61 299.82 357 301.38 C363.69 310.16 363.02 321.93 361.69 332.43 C360.95 337.33 359.98 342.14 359 347 C365.93 347.33 372.86 347.66 380 348 C380 323.91 380 299.82 380 275 C371.16 275.03 371.16 275.03 362.13 275.07 C358.4 275.08 354.68 275.09 350.95 275.1 C345.03 275.11 339.11 275.12 333.19 275.15 C328.41 275.17 323.64 275.18 318.87 275.19 C317.04 275.19 315.22 275.2 313.4 275.21 C310.85 275.23 308.3 275.23 305.75 275.23 C304.99 275.23 304.24 275.24 303.45 275.25 C298.23 275.23 298.23 275.23 296 273 C295.37 265.84 295.42 258.76 298 252 C301.75 250.88 301.75 250.88 304 252 C304 257.94 304 263.88 304 270 C331.39 270 358.78 270 387 270 C387.99 273.96 388.12 277.09 388.11 281.16 C388.11 281.87 388.11 282.58 388.11 283.31 C388.11 285.66 388.11 288.01 388.1 290.36 C388.1 291.99 388.09 293.62 388.09 295.25 C388.09 299.54 388.08 303.83 388.07 308.11 C388.06 313.26 388.05 318.41 388.05 323.56 C388.04 331.37 388.02 339.19 388 347 C408.46 347.33 428.92 347.66 450 348 C452.5 357.36 454.91 366.65 456.99 376.1 C457.25 377.28 457.52 378.47 457.79 379.69 C458.35 382.19 458.9 384.7 459.46 387.2 C460.9 393.72 462.36 400.24 463.81 406.75 C464.09 408.01 464.38 409.28 464.67 410.58 C467.68 424.08 470.78 437.55 474 451 C474.16 451.68 474.32 452.35 474.49 453.05 C475.74 458.27 476.99 463.48 478.25 468.69 C478.5 469.73 478.5 469.73 478.76 470.79 C479.24 472.78 479.72 474.77 480.2 476.76 C480.62 478.46 480.62 478.46 481.04 480.2 C482.29 485.15 483.66 490.07 485 495 C494.57 495 504.14 495 514 495 C514 394.68 514 294.36 514 191 C515.98 190.67 517.96 190.34 520 190 C521 191 521 191 521.12 193.09 C521.12 194.02 521.12 194.95 521.12 195.9 C521.12 196.97 521.12 198.03 521.12 199.12 C521.12 200.3 521.12 201.47 521.11 202.68 C521.11 203.91 521.11 205.14 521.11 206.4 C521.11 209.78 521.11 213.16 521.1 216.54 C521.1 220.07 521.09 223.6 521.09 227.13 C521.09 233.82 521.08 240.5 521.07 247.19 C521.06 256.22 521.05 265.26 521.05 274.29 C521.04 288.53 521.02 302.76 521 317 C552.02 316.34 583.04 315.68 615 315 C615 315.66 615 316.32 615 317 C607.96 319.57 601.22 320.15 593.77 320.11 C592.58 320.11 592.58 320.11 591.37 320.11 C588.78 320.11 586.19 320.11 583.6 320.1 C581.79 320.1 579.99 320.09 578.18 320.09 C573.44 320.09 568.71 320.08 563.97 320.07 C559.13 320.06 554.29 320.05 549.45 320.05 C539.97 320.04 530.48 320.02 521 320 C521 320.89 521.01 321.77 521.01 322.69 C521.12 344.26 521.21 365.84 521.26 387.41 C521.28 397.84 521.32 408.28 521.38 418.71 C521.43 427.8 521.46 436.89 521.47 445.99 C521.48 450.8 521.49 455.62 521.53 460.43 C521.56 464.96 521.57 469.5 521.57 474.03 C521.57 475.69 521.58 477.35 521.6 479.02 C521.62 481.29 521.61 483.56 521.6 485.83 C521.61 487.1 521.61 488.37 521.62 489.68 C520.84 493.88 519.27 495.35 516 498 C513.95 498.7 513.95 498.7 511.91 498.81 C511.13 498.85 510.36 498.9 509.56 498.95 C508.71 498.97 507.87 498.98 507 499 C506.08 499.02 505.16 499.04 504.21 499.06 C501.29 499.1 498.36 499.09 495.44 499.06 C494.43 499.06 493.42 499.05 492.38 499.05 C489.92 499.04 487.46 499.02 485 499 C485.22 499.77 485.44 500.54 485.66 501.33 C488.23 510.63 490.37 519.99 492.43 529.4 C494.74 539.89 497.14 550.35 499.56 560.81 C499.95 562.5 500.34 564.19 500.73 565.88 C502.12 571.86 503.5 577.85 504.89 583.84 C505.62 586.98 506.34 590.11 507.06 593.25 C507.27 594.12 507.47 595 507.68 595.9 C508.39 599 509 601.81 509 605 C510.18 604.99 511.36 604.99 512.57 604.98 C526.8 604.94 541.01 605.12 555.24 605.37 C559.05 605.44 562.86 605.5 566.68 605.56 C569.12 605.6 571.56 605.64 574 605.68 C575.13 605.7 576.27 605.72 577.43 605.73 C578.49 605.75 579.54 605.77 580.62 605.79 C582.01 605.82 582.01 605.82 583.41 605.84 C586 606 586 606 588.67 606.57 C591.95 607.18 593.67 606.13 596.64 604.68 C597.71 604.17 598.78 603.65 599.89 603.12 C601 602.56 602.11 602.01 603.25 601.44 C604.34 600.91 605.44 600.38 606.57 599.84 C621.16 592.76 621.16 592.76 632.69 581.62 C633.07 578.45 632.52 577.94 630.69 575.44 C629.98 574.6 629.98 574.6 629.26 573.75 C625.82 568.98 626.07 561.86 626.59 556.24 C631.39 529.83 653.01 502.2 674.41 487.32 C679.57 484 679.57 484 682 484 C681.45 480.07 681.08 477.9 677.97 475.3 C676.4 474.29 674.81 473.31 673.19 472.36 C671.06 471.03 669.52 470 668 468 C667.15 463.21 667.4 458.66 669.75 454.38 C671.33 451.22 671.33 451.22 670.24 448.93 C669.1 446.81 669.1 446.81 667.79 444.89 C667 443 667 443 667.47 440.8 C669 439 669 439 671.93 438.5 C673.67 438.47 673.67 438.47 675.44 438.44 C680 438.55 680 438.55 683.79 436.47 C684.39 435.74 684.39 435.74 685 435 C685.66 435 686.32 435 687 435 C687 434.34 687 433.68 687 433 C696.38 427.35 696.38 427.35 702 427 C702.69 426.95 703.38 426.9 704.09 426.85 C711.25 426.54 716.37 428.18 722.25 432.25 C727.49 437.49 729.24 440.96 729.5 448.31 C728.93 463.47 719.35 472.91 709.04 483.12 C707 485 707 485 704.79 486.55 C702.66 487.97 702.66 487.97 702.25 491.19 C702.17 492.12 702.09 493.04 702 494 C702.99 493.67 703.98 493.34 705 493 C707.26 492.93 709.52 492.93 711.78 492.95 C713.2 492.97 714.62 492.98 716.04 492.99 C716.79 493 717.54 493.01 718.32 493.01 C723.16 493.06 728 493.04 732.84 493.04 C737.08 493.05 741.33 493.07 745.57 493.13 C749.69 493.18 753.8 493.19 757.92 493.16 C759.48 493.16 761.04 493.18 762.59 493.21 C769.89 493.37 776.1 493.45 781.82 488.39 C783.16 487.06 784.43 485.65 785.69 484.24 C788.21 481.8 789.56 481.29 793 481 C796.45 485.68 798.56 489.15 797.7 495.06 C795.93 502 791.55 506.64 786 511 C773.32 516.88 758.72 516.19 745.06 516.61 C743.39 516.66 743.39 516.66 741.69 516.72 C740.69 516.75 739.69 516.78 738.67 516.81 C736.04 516.92 736.04 516.92 733.71 517.58 C733.14 517.72 732.58 517.86 732 518 C731.67 517.67 731.34 517.34 731 517 C728.85 517.04 726.71 517.16 724.56 517.31 C723.58 517.38 723.58 517.38 722.58 517.45 C714.36 518.07 706.18 519.03 698 520 C696.01 531.73 695.78 543.12 696 555 C696.98 554.98 697.97 554.95 698.98 554.93 C733.3 554.36 733.3 554.36 741.67 562.25 C745.12 566.8 744.45 572.59 744 578 C741.28 593.27 730.26 607.98 721.61 620.57 C719.79 623.32 718.34 626.13 716.94 629.11 C715.22 632.56 713.1 635.77 711 639 C711.73 639.27 712.46 639.55 713.21 639.83 C715.87 640.95 718.18 642.23 720.62 643.75 C725.98 647.03 731.47 650.03 737 653 C737 653.66 737 654.32 737 655 C732.04 657.37 727.7 658.54 722.19 658.95 C721.46 659.01 720.72 659.07 719.97 659.14 C718.43 659.27 716.89 659.39 715.34 659.51 C713.03 659.68 710.73 659.88 708.42 660.08 C696.6 661.06 684.76 661.88 673 660 C673.14 653.61 675.85 649.67 679.41 644.45 C681.13 642.02 681.13 642.02 682 639 C680.35 638.67 678.7 638.34 677 638 C676.67 636.68 676.34 635.36 676 634 C676.99 634 677.98 634 679 634 C679.24 633.18 679.48 632.36 679.73 631.51 C681.23 627.37 683.17 623.7 685.31 619.88 C685.74 619.11 686.17 618.34 686.61 617.55 C691.96 608.09 697.97 599.04 704 590 C703.25 590.15 702.5 590.31 701.72 590.46 C696.04 591.58 690.89 592.07 685.11 591.78 C674.05 590.8 674.05 590.8 663.77 593.87 C661.5 596.45 659.77 599.05 658 602 C656.58 603.72 655.12 605.41 653.62 607.06 C652.88 607.88 652.14 608.71 651.38 609.55 C647.25 613.8 642.7 617.42 638 621 C636.81 621.93 636.81 621.93 635.61 622.87 C625.62 630.31 615.42 634.74 603.25 636.88 C597.75 637.75 597.75 637.75 593.3 640.82 C592.48 643.26 592.23 645.44 592 648 C591.46 650.19 590.9 652.38 590.31 654.56 C589.87 656.37 589.43 658.19 589 660 C587.35 660.33 585.7 660.66 584 661 C583.04 659.25 582.08 657.5 581.12 655.75 C580.59 654.78 580.06 653.8 579.51 652.8 C578.3 650.55 577.14 648.29 576 646 C571.12 646.66 566.23 647.31 561.35 647.97 C559.69 648.19 558.04 648.42 556.39 648.64 C553.98 648.96 551.56 649.29 549.14 649.61 C548.31 649.73 547.48 649.84 546.62 649.95 C542.49 650.51 538.37 651.09 534.25 651.71 C518.52 654.08 502.72 655.71 486.9 657.33 C483.96 657.64 481.02 657.95 478.09 658.25 C464.59 659.67 451.1 661.05 437.58 662.21 C436.66 662.3 435.74 662.38 434.79 662.46 C428.51 662.98 422.29 663.09 416 663 C415.67 663.99 415.34 664.98 415 666 C412.01 667.5 408.97 667.19 405.69 667.19 C404.88 667.19 404.07 667.19 403.24 667.19 C394.15 667.11 385.08 666.58 376 666.06 C374.78 665.99 374.78 665.99 373.54 665.92 C371.9 665.83 370.26 665.74 368.62 665.65 C321.5 662.98 274.26 662.82 227.07 662.48 C221.6 662.44 216.12 662.4 210.65 662.36 C205.21 662.31 199.77 662.27 194.33 662.23 C190.96 662.2 187.59 662.18 184.22 662.15 C169.79 662.03 155.36 661.98 140.93 662.1 C138.81 662.11 136.69 662.13 134.57 662.14 C133.88 662.14 133.19 662.15 132.48 662.15 C131.11 662.16 129.73 662.17 128.36 662.18 C123.76 662.21 119.16 662.27 114.56 662.33 C112.18 662.35 109.81 662.36 107.43 662.38 C106.35 662.4 105.28 662.42 104.17 662.44 C98.12 662.45 94.58 662.09 90 658 C88.56 655.7 88.56 655.7 87.59 653.19 C87.22 652.28 86.85 651.37 86.47 650.43 C86.11 649.48 85.75 648.54 85.38 647.56 C82.13 639.25 82.13 639.25 77 632 C76.86 631.17 76.71 630.35 76.56 629.5 C75.77 625.97 73.54 624.48 71 622 C71 621.01 71 620.02 71 619 C70.29 619.16 69.59 619.32 68.86 619.49 C53.05 622.32 35.6 620.19 20 617 C20.99 619.97 21.98 622.94 23 626 C19.2 629.49 16.45 630.6 11.38 631.38 C5.58 632.37 0.13 633.82 -5.44 635.69 C-27.07 642.81 -49.65 647.72 -72 652 C-73.78 652.34 -73.78 652.34 -75.59 652.69 C-76.78 652.84 -76.78 652.84 -78 653 C-78.33 652.67 -78.66 652.34 -79 652 C-79.99 652.66 -80.98 653.32 -82 654 C-82.99 654 -83.98 654 -85 654 C-85 653.34 -85 652.68 -85 652 C-85.48 652.47 -85.97 652.93 -86.46 653.42 C-89.98 655.61 -93.54 655.9 -97.58 656.35 C-98.42 656.46 -99.27 656.56 -100.14 656.67 C-101.93 656.89 -103.72 657.1 -105.51 657.31 C-108.2 657.62 -110.89 657.95 -113.57 658.28 C-151.73 662.93 -192.26 664.08 -228 648 C-229.03 647.54 -230.05 647.08 -231.11 646.6 C-247.81 638.25 -260.97 623.67 -267 606 C-273.42 583.27 -268.73 560.14 -263.81 537.62 C-263.61 536.7 -263.41 535.78 -263.21 534.83 C-259.94 519.75 -256.33 504.82 -252 490 C-251.7 488.96 -251.41 487.92 -251.1 486.85 C-246.11 469.47 -239.89 452.71 -233 436 C-232.67 435.18 -232.33 434.37 -231.99 433.52 C-222.5 410.45 -210.07 387.89 -195 368 C-194.59 367.45 -194.18 366.89 -193.75 366.32 C-175.08 341.21 -152.4 320.97 -125.56 305 C-124.68 304.47 -123.79 303.94 -122.88 303.4 C-113.73 298.08 -104.18 293.95 -94.31 290.19 C-93.5 289.88 -92.69 289.56 -91.86 289.24 C-89.91 288.49 -87.95 287.75 -86 287 C-87.14 286.96 -88.27 286.93 -89.45 286.89 C-117.76 285.77 -117.76 285.77 -127 277 C-131.61 271.23 -133.35 265.92 -133.29 258.58 C-132.62 252.64 -130.3 246.95 -127 242 C-128.05 240.73 -128.05 240.73 -130.4 240.92 C-131.45 240.94 -132.5 240.95 -133.59 240.97 C-135.34 240.99 -135.34 240.99 -137.13 241.01 C-139.01 241.04 -139.01 241.04 -140.94 241.06 C-181.95 241.26 -181.95 241.26 -196.27 228.82 C-198.93 226.02 -200.39 223.54 -202 220 C-202.3 219.4 -202.59 218.79 -202.9 218.17 C-206.2 210.73 -205.94 203.11 -203.5 195.44 C-201.04 189.39 -197.43 184.75 -193 180 C-192.33 179.27 -191.65 178.55 -190.96 177.8 C-180.9 167.92 -167.59 161.12 -155 155 C-155.45 154.67 -155.91 154.35 -156.37 154.01 C-158.46 152.49 -160.54 150.97 -162.62 149.44 C-163.34 148.92 -164.05 148.41 -164.79 147.88 C-170.84 143.41 -177.92 137.84 -179.37 129.99 C-179.58 123.42 -177.87 118.33 -174 113 C-163.85 103.33 -149.37 101.15 -136 100 C-136.47 98.78 -136.95 97.57 -137.44 96.31 C-140.92 85.74 -141.22 74.16 -136.62 63.93 C-130.4 52.41 -121.07 44.46 -108.54 40.54 C-103.76 39.52 -98.84 39.29 -94 40 C-91.77 41.52 -91.77 41.52 -90 43 C-89.34 43 -88.68 43 -88 43 C-87.03 41.59 -86.06 40.18 -85.14 38.73 C-77.28 26.82 -66.61 15.65 -54 9 C-52.93 8.41 -51.85 7.82 -50.75 7.22 C-37.54 0.25 -14.01 -9.46 0 0 Z M52.88 87.88 C46.86 92.32 39.25 92.44 32 93 C32.17 94.28 32.33 95.56 32.5 96.88 C32.77 98.95 33 100.91 33 103 C27.34 105.08 22.03 106.61 16 107 C15.36 107.05 14.72 107.11 14.06 107.16 C1.57 107.7 -10.68 103.9 -22 99 C-22.15 99.77 -22.29 100.55 -22.45 101.34 C-24.12 109.12 -26.22 115.33 -32.7 120.3 C-36.59 122.7 -40.61 123.93 -45 125 C-44.87 125.76 -44.73 126.53 -44.6 127.32 C-41.02 149.03 -40.18 169.54 -53.46 188.27 C-55.77 190.86 -57.56 191.71 -61 192 C-62.68 191.03 -64.35 190.02 -66 189 C-68.72 188.73 -71.25 188.86 -74 189 C-77.71 197.12 -77.26 204.4 -75 213 C-73.21 216.04 -71.49 218.51 -69 221 C-66.13 221.67 -66.13 221.67 -63 221 C-61.29 219.04 -59.62 217.04 -58 215 C-55.35 214.31 -55.35 214.31 -53 214 C-51.37 217.35 -49.74 220.71 -48.12 224.06 C-47.66 225.01 -47.2 225.95 -46.73 226.92 C-40.42 240.04 -38.39 254.37 -42.5 268.62 C-43.82 272.37 -45.42 275.91 -47.15 279.48 C-47.53 280.27 -47.9 281.06 -48.29 281.87 C-49.04 283.42 -49.81 284.95 -50.62 286.47 C-52.68 290.68 -53.34 293.23 -51.91 297.79 C-48.4 306.24 -42.59 311.14 -34.32 314.93 C-26.62 317.42 -18.9 317.27 -11.5 313.94 C-7.09 311.63 -3.42 308.36 -1 304 C-0.37 300.27 -0.56 296.7 -0.81 292.94 C-1.48 280.65 -1.48 280.65 2 276 C7.67 270.62 14.67 267.5 21.69 264.25 C22.78 263.73 23.87 263.22 25 262.68 C30.28 260.19 35.57 257.74 40.88 255.32 C53.47 249.54 65.73 243.61 74 232 C74.44 231.41 74.87 230.82 75.32 230.21 C83.97 217.59 85.39 202.1 85.38 187.25 C85.37 186.57 85.37 185.89 85.37 185.19 C85.34 172.77 83.86 161.08 81 149 C80.64 147.39 80.29 145.77 79.94 144.16 C77.68 134.22 74.68 124.55 71.5 114.88 C71.13 113.75 70.76 112.62 70.39 111.46 C67.27 102.2 63.91 93.1 57 86 C54.78 85.78 54.78 85.78 52.88 87.88 Z M290.34 305.02 C286.77 310.03 284.6 315.08 283 321 C284.18 322.08 284.18 322.08 285.38 323.19 C289.94 328.08 290.34 332.74 290.62 339.25 C290.66 339.98 290.7 340.71 290.74 341.47 C291 346.44 291 346.44 291 348 C310.8 348 330.6 348 351 348 C351.66 345.03 352.32 342.06 353 339 C349.34 337.98 345.81 337.15 342 337 C338.78 339.31 338.78 339.31 336 342 C330.99 343.07 326.73 341.69 322 340 C321.01 340.5 321.01 340.5 320 341 C313.93 341.88 309.72 340.96 304.72 337.42 C300.46 333.9 298.26 330.37 297 325 C296.71 321.13 296.76 317.72 298 314 C299.65 313.67 301.3 313.34 303 313 C302.91 314.95 302.91 314.95 302.81 316.94 C302.83 323.51 304.21 328.84 308.44 333.94 C311.57 336.46 313.56 337.82 317.56 338.31 C320.02 338.19 320.02 338.19 321.75 336.75 C326.11 330.65 324.64 319.3 323.57 312.16 C321.71 305.47 317.49 302.07 311.69 298.62 C302.55 296.5 296.35 297.7 290.34 305.02 Z M329.25 304.5 C328.84 305 328.42 305.49 328 306 C328.31 306.7 328.63 307.39 328.95 308.11 C331.88 316.2 331.44 324.87 329 333 C328.66 334.33 328.33 335.67 328 337 C331.87 338.88 331.87 338.88 336 338 C340.84 329.95 341.06 320.08 340 311 C338.63 307.72 337.51 305.51 335 303 C331.12 302.57 331.12 302.57 329.25 304.5 Z M348 305 C346.64 307.71 346.98 309.78 347.06 312.81 C347.13 319.7 346.24 326.23 345 333 C346.98 333.66 348.96 334.32 351 335 C354.38 332.06 354.87 329.69 355.2 325.3 C355.3 319.01 355.34 312.56 352 307 C349.98 305.74 349.98 305.74 348 305 Z M277 326 C275.25 328.23 273.82 330.33 272.38 332.75 C271.98 333.38 271.59 334.02 271.18 334.67 C269.62 337.2 268.15 339.69 266.89 342.38 C265.55 344.82 263.53 345.09 261 346 C260.67 346.66 260.34 347.32 260 348 C267.92 348 275.84 348 284 348 C284.26 339.79 284.09 333.61 281 326 C279.68 326 278.36 326 277 326 Z M47 354 C47.69 366.14 47.69 366.14 48.95 378.15 C49.04 378.84 49.13 379.53 49.22 380.23 C49.52 382.47 49.82 384.7 50.12 386.94 C50.34 388.57 50.56 390.19 50.78 391.82 C53.58 412.62 56.59 433.38 59.59 454.15 C60.56 460.91 61.53 467.67 62.5 474.43 C62.8 476.53 63.1 478.63 63.4 480.73 C64.66 489.48 65.85 498.24 67 507 C68.02 506.59 69.03 506.18 70.08 505.76 C78.35 502.49 86.12 500.08 95 499 C94.49 490.26 93.39 481.83 91.73 473.24 C89.79 462.77 88.09 452.3 86.61 441.76 C86.52 441.08 86.42 440.39 86.32 439.69 C85.74 435.54 85.17 431.38 84.6 427.23 C84.11 423.69 83.62 420.15 83.13 416.61 C82.25 410.25 81.36 403.88 80.49 397.51 C80.16 395.11 79.8 392.71 79.43 390.31 C79.16 388.5 79.16 388.5 78.88 386.66 C78.71 385.6 78.54 384.53 78.37 383.44 C77.93 379.31 78 375.15 78 371 C177.66 370.67 277.32 370.34 380 370 C380 364.72 380 359.44 380 354 C270.11 354 160.22 354 47 354 Z M387 354 C387 359.28 387 364.56 387 370 C398.22 370.33 409.44 370.66 421 371 C423.34 380.37 425.67 389.71 427.77 399.14 C428.27 401.35 428.77 403.57 429.26 405.78 C429.52 406.91 429.77 408.04 430.03 409.2 C433.8 425.99 437.58 442.78 441.69 459.49 C443.94 468.69 446.07 477.91 448.14 487.15 C448.37 488.17 448.6 489.19 448.84 490.23 C449.04 491.13 449.24 492.03 449.45 492.96 C449.81 494.98 449.81 494.98 451 496 C452.85 496.09 454.71 496.11 456.57 496.1 C457.69 496.09 458.82 496.09 459.97 496.09 C461.16 496.08 462.34 496.07 463.56 496.06 C464.75 496.06 465.94 496.05 467.16 496.05 C470.11 496.04 473.05 496.02 476 496 C475.48 488.67 474.16 481.78 472.36 474.66 C471.82 472.43 471.27 470.21 470.73 467.99 C470.44 466.84 470.16 465.69 469.86 464.51 C468.44 458.71 467.05 452.9 465.67 447.09 C465.39 445.91 465.1 444.74 464.81 443.52 C463.94 439.85 463.06 436.17 462.19 432.5 C461.88 431.23 461.58 429.96 461.27 428.65 C456.88 410.21 452.64 391.73 448.66 373.2 C448.5 372.41 448.33 371.63 448.15 370.82 C447.85 369.39 447.54 367.97 447.24 366.54 C446.33 362.28 445.2 358.21 444 354 C425.19 354 406.38 354 387 354 Z M85 376 C85.67 385.44 86.51 394.66 87.82 404 C88 405.31 88.18 406.61 88.36 407.95 C88.85 411.44 89.33 414.92 89.82 418.41 C90.13 420.57 90.43 422.74 90.73 424.9 C94.22 449.98 97.97 475.01 102 500 C102.54 500.17 103.09 500.34 103.65 500.51 C106.14 501.29 108.63 502.06 111.12 502.84 C112.4 503.24 112.4 503.24 113.71 503.65 C133.69 509.91 150.27 520.4 162 538 C175.98 536.8 175.98 536.8 188 532 C188.55 522.72 187.63 513.49 186.69 504.27 C186.55 502.91 186.42 501.54 186.28 500.18 C185.93 496.63 185.58 493.09 185.22 489.54 C184.64 483.83 184.08 478.12 183.51 472.41 C183.32 470.43 183.12 468.44 182.91 466.46 C182.79 465.26 182.67 464.06 182.55 462.83 C182.44 461.77 182.34 460.71 182.23 459.63 C182 457 182 457 182 454 C190.91 453.67 199.82 453.34 209 453 C209.37 448.2 209.37 448.2 209.75 443.31 C210.8 431.6 212.47 421.41 220 412 C220 411.34 220 410.68 220 410 C220.54 409.77 221.07 409.55 221.62 409.31 C224.19 408 224.19 408 226.75 405.62 C239.68 394.69 256.97 395.01 273 396 C284.9 397.38 295.65 403.19 303.25 412.48 C312.02 425.11 314.36 438.1 316 453 C329.37 453.5 329.37 453.5 343 454 C343.71 456.86 344.42 459.73 345.15 462.68 C345.84 465.45 346.53 468.21 347.22 470.98 C347.7 472.91 348.17 474.83 348.65 476.76 C349.34 479.52 350.03 482.29 350.71 485.05 C351.04 486.35 351.04 486.35 351.36 487.67 C351.56 488.48 351.76 489.28 351.97 490.1 C352.14 490.81 352.32 491.51 352.5 492.24 C352.97 494.09 352.97 494.09 354 496 C362.58 496 371.16 496 380 496 C380 456.4 380 416.8 380 376 C282.65 376 185.3 376 85 376 Z M387 376 C387 415.6 387 455.2 387 496 C405.48 496 423.96 496 443 496 C440.7 484.52 438.43 473.15 435.65 461.79 C432.32 448.12 429.07 434.43 426.01 420.7 C425.76 419.59 425.51 418.48 425.26 417.34 C424.05 411.92 422.86 406.5 421.67 401.08 C421.23 399.1 420.79 397.11 420.35 395.12 C420.15 394.23 419.96 393.34 419.76 392.42 C419.57 391.57 419.39 390.73 419.19 389.85 C419.03 389.13 418.87 388.41 418.71 387.66 C417.66 383.72 416.29 379.87 415 376 C405.76 376 396.52 376 387 376 Z M226.2 411.47 C216.76 422.34 215.42 439.17 216 453 C219.96 453 223.92 453 228 453 C228.24 451.48 228.24 451.48 228.48 449.92 C230.45 438.04 232.51 426.1 242.85 418.67 C251.56 412.83 260.68 411.83 271 413 C279.09 415.51 284.97 419.51 289 427 C293.26 435.14 294.53 444.03 296 453 C300.29 453 304.58 453 309 453 C307.5 437.31 304.46 421.94 292 411 C291.49 410.51 290.98 410.02 290.45 409.51 C281.88 401.58 271.97 399.58 260.56 398.75 C247.14 399.69 236.1 401.89 226.2 411.47 Z M242.69 424.31 C235.74 433.12 236 441.75 236 453 C253.49 453 270.98 453 289 453 C287.79 440.72 287.79 440.72 283.75 430.38 C283.19 429.27 282.63 428.16 282.05 427.02 C278.77 422.18 274.77 418.59 269 417 C258.55 415.99 250.11 416.32 242.69 424.31 Z M687 438 C686.34 438.66 685.68 439.32 685 440 C685.3 441.81 685.3 441.81 686 444 C686.35 446.33 686.69 448.66 687 451 C690.14 451.04 690.14 451.04 693.81 450.69 C697.35 450.69 698.08 451.05 701.25 453.12 C703.99 455.98 705.96 458.63 708 462 C708.66 461.67 709.32 461.34 710 461 C710.47 459.1 710.47 459.1 710.62 456.94 C710.75 455.64 710.87 454.34 711 453 C706.67 449.99 702.34 446.99 698 444 C697.08 443.36 696.15 442.72 695.2 442.07 C694.41 441.53 693.63 440.99 692.81 440.44 C691.77 439.72 691.77 439.72 690.71 439 C689.04 437.83 689.04 437.83 687 438 Z M673 441 C672.67 441.99 672.34 442.98 672 444 C673.37 446.19 673.37 446.19 675 448 C677.34 445.33 677.34 445.33 678 442 C676.35 441.67 674.7 441.34 673 441 Z M681 445 C679.02 447.97 679.02 447.97 677 451 C679.47 451.5 679.47 451.5 682 452 C682.33 450.02 682.66 448.04 683 446 C682.34 445.67 681.68 445.34 681 445 Z M692 453 C691.34 453.66 690.68 454.32 690 455 C689.93 457.51 689.93 457.51 691 460 C694.61 462.99 697.4 463.32 702 463 C702.33 462.34 702.66 461.68 703 461 C701.26 457.43 699.46 454.99 696 453 C694.68 453 693.36 453 692 453 Z M675 454 C673 457.95 673 457.95 672.62 462 C672.6 462.66 672.57 463.32 672.54 464 C673.22 466.95 674.7 468.09 677 470 C678.69 470.89 680.4 471.74 682.12 472.56 C685.34 474.39 686.72 475.26 688.02 478.76 C688.5 481.75 688.5 481.75 688.72 484.61 C688.77 487.18 688.77 487.18 691 489 C693.37 489.53 693.37 489.53 696 489 C698.63 487.15 698.63 487.15 701.06 484.69 C703.94 481.93 706.75 479.32 710 477 C709.51 475.02 709.51 475.02 709 473 C708.63 473.5 708.26 473.99 707.88 474.5 C705.25 476.6 703.26 476.22 700 476 C700.62 475.96 701.24 475.92 701.88 475.88 C702.93 475.44 702.93 475.44 704 475 C705.3 472 705.3 472 706 469 C706.99 469 707.98 469 709 469 C709 467.68 709 466.36 709 465 C707.23 463.78 707.23 463.78 705 463 C704.42 463.31 703.85 463.62 703.25 463.94 C699.79 465.57 696.59 464.85 693 464 C690.12 462.88 690.12 462.88 688 461 C686.69 457.31 686.69 457.31 686 454 C682.37 454 678.74 454 675 454 Z M189 459 C189.59 467.27 190.19 475.53 190.94 483.79 C191.02 484.74 191.11 485.69 191.2 486.67 C191.46 489.65 191.73 492.64 192 495.62 C192.35 499.58 192.71 503.53 193.06 507.48 C193.15 508.41 193.23 509.34 193.32 510.3 C193.9 516.86 194.47 523.43 195 530 C201.87 529.35 208.49 528.18 215.24 526.75 C216.28 526.53 217.32 526.31 218.4 526.09 C221.7 525.4 225.01 524.7 228.31 524 C230.55 523.53 232.79 523.06 235.03 522.59 C239.11 521.74 243.2 520.88 247.28 520.02 C248.1 519.84 248.92 519.67 249.76 519.49 C251.85 519.03 253.93 518.53 256 518 C257.02 504.63 257.02 504.63 250.64 493.2 C248.41 490.21 247.8 487.74 247.68 484.04 C248.26 480.36 250.14 478.16 253 476 C261.06 471.44 271.44 471.85 280.34 473.69 C284.82 475.13 287.47 476.45 290.75 479.88 C292.27 483.66 292.34 485.15 291 489 C290.13 489.97 289.27 490.94 288.38 491.94 C284.66 496.62 285.99 502.4 286.61 507.96 C286.74 508.97 286.87 509.97 287 511 C287.87 510.89 287.87 510.89 288.77 510.78 C308.46 508.55 308.46 508.55 315.31 512.61 C319.03 515.67 321.42 519.33 322.44 524.05 C322.77 529.48 321.04 532.73 318 537 C314.15 540.85 310.06 542.28 305 544 C305 547.3 305 550.6 305 554 C316.42 554.09 327.83 554.12 339.25 553.62 C340.48 553.58 340.48 553.58 341.73 553.53 C346.17 553.32 350.43 552.79 354.8 551.97 C356.27 551.7 356.27 551.7 357.76 551.42 C358.5 551.28 359.24 551.14 360 551 C359.8 550.15 359.8 550.15 359.59 549.29 C358.18 543.4 356.77 537.51 355.36 531.62 C354.83 529.42 354.3 527.23 353.78 525.03 C353.02 521.87 352.26 518.71 351.5 515.55 C351.27 514.57 351.03 513.59 350.79 512.58 C350.57 511.66 350.35 510.74 350.12 509.79 C349.93 508.98 349.74 508.18 349.54 507.35 C348.98 504.91 348.49 502.45 348 500 C333.15 500 318.3 500 303 500 C303 499.34 303 498.68 303 498 C324.28 497.01 324.28 497.01 346 496 C343.74 483.59 340.84 471.3 338 459 C288.83 459 239.66 459 189 459 Z M676 491 C680.67 493.74 683.99 494.34 689.38 494.19 C691.24 494.15 691.24 494.15 693.15 494.11 C694.09 494.07 695.03 494.04 696 494 C696 493.01 696 492.02 696 491 C695.15 490.88 694.29 490.76 693.41 490.63 C692.31 490.47 691.2 490.3 690.06 490.12 C688.41 489.88 688.41 489.88 686.72 489.63 C685.82 489.42 684.93 489.22 684 489 C683.67 488.34 683.34 487.68 683 487 C679.87 487 678.32 489.05 676 491 Z M781.22 493.13 C777.47 497.98 777.69 503.07 778 509 C782.94 508.23 785.39 506.53 789 503 C790.88 499.29 791.22 496.32 791.12 492.19 C791.11 491.21 791.09 490.24 791.07 489.23 C791.05 488.49 791.02 487.76 791 487 C786.98 487 784.06 490.57 781.22 493.13 Z M701 498 C699.45 503.67 698.51 509.15 698 515 C699.94 515.03 701.87 515.05 703.81 515.06 C704.89 515.07 705.97 515.09 707.08 515.1 C710.07 515.14 710.07 515.14 713 514 C713.34 512.46 713.67 510.92 714 509.38 C714.19 508.52 714.37 507.66 714.56 506.77 C715.16 503.48 715.16 503.48 715 498 C710.38 498 705.76 498 701 498 Z M739 498 C738.34 502.62 737.68 507.24 737 512 C741.29 512 745.58 512 750 512 C750.33 510.06 750.66 508.12 751 506.12 C751.19 505.03 751.37 503.94 751.56 502.82 C752.05 500.15 752.05 500.15 752 498 C747.71 498 743.42 498 739 498 Z M452 499 C452.76 505.35 452.76 505.35 453.94 511.53 C454.12 512.33 454.3 513.13 454.48 513.95 C454.68 514.79 454.87 515.63 455.07 516.49 C455.38 517.84 455.38 517.84 455.69 519.21 C456.35 522.1 457.02 524.99 457.69 527.88 C458.14 529.87 458.6 531.86 459.05 533.85 C461 542.34 462.96 550.84 464.93 559.33 C465.2 560.5 465.47 561.68 465.75 562.89 C466.23 564.96 466.71 567.04 467.2 569.11 C467.81 571.74 468.41 574.37 469 577 C469.21 577.93 469.42 578.86 469.63 579.82 C469.92 581.17 469.92 581.17 470.22 582.55 C470.48 583.76 470.48 583.76 470.75 585 C471 587 471 587 470 589 C446.11 600.94 407.45 596.52 381.06 597.35 C378.21 597.44 375.36 597.53 372.51 597.62 C302.36 599.87 232.17 600.8 162 602 C161.51 603.21 161.51 603.21 161.01 604.45 C160.57 605.52 160.14 606.59 159.69 607.69 C159.04 609.27 159.04 609.27 158.39 610.89 C157 614 157 614 155.27 616.77 C154.85 617.51 154.43 618.24 154 619 C154.33 619.66 154.66 620.32 155 621 C279.43 619.74 279.43 619.74 416.94 615.06 C418.16 615 418.16 615 419.4 614.94 C437.17 614.06 454.92 613 472.66 611.69 C474.37 611.56 476.07 611.44 477.78 611.32 C485.99 610.72 494.02 610.13 502 608 C496.17 577.8 489.25 547.85 482.24 517.9 C482.03 517.01 481.82 516.12 481.61 515.2 C481.22 513.54 480.83 511.87 480.43 510.2 C480.26 509.46 480.08 508.71 479.9 507.94 C479.75 507.3 479.6 506.66 479.45 505.99 C478.93 503.67 478.47 501.33 478 499 C469.42 499 460.84 499 452 499 Z M422.44 499.22 C420.17 499.26 417.91 499.31 415.64 499.36 C412.13 499.43 408.62 499.5 405.11 499.57 C388.4 499.92 371.71 500.07 355 500 C356.83 508.96 358.72 517.9 360.86 526.8 C361.02 527.47 361.18 528.14 361.35 528.83 C362.32 532.9 362.32 532.9 363.31 536.96 C363.78 538.88 364.25 540.79 364.71 542.71 C365.12 544.39 365.12 544.39 365.53 546.09 C365.98 548.86 365.94 550.4 365 553 C362.61 553.49 360.21 553.97 357.81 554.44 C357.16 554.57 356.5 554.71 355.83 554.85 C343.94 557.16 331.76 557.22 319.69 557.56 C318.25 557.61 316.82 557.65 315.38 557.69 C311.92 557.8 308.46 557.9 305 558 C304.67 558.84 304.35 559.67 304.01 560.53 C303.57 561.62 303.13 562.71 302.68 563.83 C302.25 564.91 301.82 566 301.38 567.11 C299.58 570.87 297.82 572.36 294 574 C290.32 574.94 288.62 575.21 285 574 C281.34 565.98 281.31 557.68 281 549 C279.02 549.11 277.04 549.24 275.06 549.38 C273.96 549.44 272.86 549.51 271.72 549.59 C270.37 549.79 270.37 549.79 269 550 C267.55 552.9 267.98 555.4 268.06 558.62 C268.11 566.97 267.48 573.31 262 580 C257.6 583.72 254.72 584.46 249 584 C246.44 578.01 245.5 572.98 245.31 566.5 C245.28 565.68 245.24 564.86 245.21 564.01 C245.13 562.01 245.06 560 245 558 C237.53 558.72 230.36 560.45 223.06 562.19 C221.73 562.5 220.4 562.82 219.06 563.13 C216.35 563.78 213.64 564.42 210.93 565.07 C207.3 565.93 203.67 566.78 200.04 567.62 C188.53 570.31 177.2 573.23 166 577 C165.66 579.21 165.33 581.42 165 583.62 C164.81 584.85 164.63 586.08 164.44 587.35 C164.05 590.62 163.97 593.71 164 597 C238.62 597.37 313.18 596.37 387.76 593.65 C390.19 593.56 392.61 593.48 395.04 593.39 C411.91 592.8 428.72 591.9 445.55 590.46 C446.31 590.4 447.08 590.34 447.86 590.27 C450.01 590.08 452.16 589.89 454.31 589.7 C455.53 589.59 456.75 589.48 458.01 589.36 C461.05 589.09 461.05 589.09 464 588 C462.34 576.12 459.46 564.49 456.75 552.81 C456.25 550.65 455.75 548.49 455.25 546.33 C454.05 541.13 452.85 535.94 451.64 530.74 C451.07 528.29 450.5 525.84 449.93 523.39 C449.11 519.84 448.27 516.3 447.44 512.75 C447.1 511.29 447.1 511.29 446.75 509.8 C446.54 508.94 446.34 508.07 446.12 507.17 C445.95 506.45 445.78 505.73 445.6 504.99 C444.95 502.84 444.02 500.99 443 499 C436.14 498.98 429.3 499.07 422.44 499.22 Z M656 510 C654.37 512.22 652.74 514.45 651.12 516.69 C650.43 517.63 650.43 517.63 649.73 518.58 C647.3 521.95 645.32 525.02 644 529 C664.75 536.37 664.75 536.37 686.06 534.56 C688.68 533.26 689.75 532.53 691 529.87 C691.88 526.17 692 522.81 692 519 C691.42 518.92 690.83 518.85 690.23 518.77 C687.53 518.42 684.83 518.05 682.12 517.69 C680.75 517.51 680.75 517.51 679.34 517.33 C671.17 516.21 662.89 514.82 656 510 Z M64 517 C60.13 522 60.13 522 59 528 C59.55 528.27 60.11 528.53 60.68 528.8 C61.4 529.16 62.13 529.51 62.88 529.88 C63.59 530.22 64.31 530.57 65.05 530.93 C67 532 67 532 69 534 C69.45 537.34 69.72 539.85 67.88 542.79 C66.65 544.25 65.33 545.63 64 547 C65.42 546.88 66.83 546.76 68.25 546.62 C69.43 546.52 69.43 546.52 70.64 546.41 C73.17 545.97 74.87 545.43 77 544 C77.66 542.03 78.31 540.07 78.96 538.1 C81.22 533.53 85.88 531.03 90.34 528.87 C96.56 526.84 103.71 526.87 109.89 528.99 C122.57 535.88 127.16 549.92 131.26 562.91 C134.3 573.4 136.24 583.9 131 594 C126.95 599.84 122.74 603.68 115.78 605.62 C112.26 606.1 109.15 605.63 105.62 605.19 C100.6 604.66 100.6 604.66 95.85 606.09 C94.23 607.61 94.23 607.61 92.75 609.3 C89.83 612.14 86.16 613.37 82.45 614.92 C79.82 615.99 79.82 615.99 77 618 C84.7 628.62 96.17 634.89 109 637 C119.29 637.91 129.16 637.19 137.65 630.75 C149.63 620.61 155.5 607.44 158 592 C158.22 588.39 158.38 584.79 158.52 581.18 C159.05 577.69 159.37 577.13 162 575 C163.89 574.13 163.89 574.13 166.06 573.44 C166.89 573.17 167.71 572.9 168.57 572.63 C169.48 572.35 170.39 572.07 171.32 571.78 C172.29 571.48 173.25 571.18 174.24 570.87 C186.02 567.27 197.97 564.36 209.95 561.49 C213.2 560.71 216.46 559.91 219.71 559.11 C222.88 558.34 226.04 557.58 229.21 556.82 C230.94 556.39 230.94 556.39 232.7 555.95 C238.97 554.47 244.55 553.69 251 554 C251.05 554.65 251.1 555.29 251.15 555.96 C251.38 558.89 251.63 561.82 251.88 564.75 C251.95 565.77 252.03 566.78 252.11 567.83 C252.2 568.81 252.28 569.79 252.37 570.8 C252.44 571.7 252.51 572.6 252.59 573.53 C253.01 576.04 253.74 577.8 255 580 C259.32 577.04 260.79 575.08 262 570 C262.23 566.37 262.19 562.76 262.12 559.12 C262.12 558.15 262.11 557.18 262.1 556.17 C262.07 553.78 262.04 551.39 262 549 C270.42 545.31 278.77 541.98 288 544 C288.03 544.68 288.05 545.36 288.08 546.06 C288.19 549.15 288.31 552.23 288.44 555.31 C288.48 556.38 288.52 557.46 288.56 558.56 C288.62 560.1 288.62 560.1 288.68 561.68 C288.74 563.1 288.74 563.1 288.79 564.55 C288.91 567.14 288.91 567.14 290 570 C292.7 569.63 293.8 569.22 295.69 567.19 C297.89 563.52 298.12 560.24 298.1 556.02 C298.09 555.08 298.09 554.15 298.09 553.18 C298.08 552.22 298.07 551.25 298.06 550.25 C298.06 548.77 298.06 548.77 298.05 547.27 C298.04 544.85 298.02 542.42 298 540 C300.31 538.88 300.31 538.88 303 538 C303.99 538.66 304.98 539.32 306 540 C310.42 537.73 313.22 535.13 316 531 C316.68 526.77 316.32 524.66 314.44 520.81 C310.95 516.79 307.94 514.36 302.63 513.71 C292.96 513.56 283.9 515.58 274.5 517.62 C272.75 518 271 518.37 269.25 518.73 C264.93 519.65 260.62 520.57 256.32 521.5 C253.08 522.2 249.83 522.89 246.59 523.59 C243.3 524.29 240.01 525 236.72 525.71 C230.02 527.16 223.31 528.55 216.59 529.9 C214.08 530.41 211.56 530.92 209.04 531.43 C207.36 531.77 205.67 532.1 203.98 532.44 C195.41 534.16 186.88 535.95 178.43 538.21 C177.77 538.38 177.11 538.55 176.43 538.73 C173.39 539.54 170.35 540.38 167.32 541.27 C166.27 541.56 165.23 541.84 164.14 542.14 C163.24 542.4 162.34 542.67 161.41 542.94 C159 543 159 543 156.79 541.19 C154.97 538.96 153.22 536.69 151.5 534.38 C144.62 525.7 135.99 518.78 126 514 C125.43 513.72 124.87 513.44 124.28 513.15 C122.34 512.19 120.39 511.25 118.44 510.31 C117.82 510.01 117.21 509.72 116.58 509.41 C98.81 501.08 77.64 502.16 64 517 Z M45 528 C49 529 49 529 49 529 Z M41 533 C39.01 533.4 37.01 533.74 35 534 C35 534.66 35 535.32 35 536 C34.13 536.27 33.26 536.53 32.36 536.81 C23.59 539.92 12.11 546.03 7 554 C6.51 561.01 9.18 568.51 10.81 575.25 C12.41 581.9 13.98 588.5 15.04 595.26 C15.27 596.7 15.27 596.7 15.51 598.17 C15.79 599.97 16.04 601.78 16.27 603.59 C16.63 605.92 17.01 607.86 18 610 C22.56 612.86 27.61 613.75 32.88 614.62 C33.61 614.75 34.34 614.87 35.1 615 C53.16 617.87 72.31 618.68 88.41 608.47 C94.48 603.65 98.63 596.66 100 589 C100.65 578.11 100.96 565.04 95.19 555.38 C91.01 550.84 86.8 548.21 80.62 547.75 C75.6 547.79 70.89 549.09 66.05 550.34 C63.2 550.96 60.9 551.37 58 551 C57.34 550.01 56.68 549.02 56 548 C56.51 547.55 57.01 547.11 57.53 546.64 C61.57 543.06 61.57 543.06 63.62 538.25 C62.87 535.52 62.32 534.62 60 533 C54.83 530.54 45.38 528.62 41 533 Z M87 536 C84.78 538.96 84 540.29 84 544 C84.64 544.15 85.28 544.29 85.94 544.45 C92.07 546.03 97.32 547.61 101 553 C107.7 568.72 108.18 583.71 103 600 C107.05 602.03 111.99 601.65 116.23 600.28 C121.85 597.66 124.99 594.63 127.25 588.75 C129.04 579.8 127.42 572.64 124.81 564.06 C124.52 563.04 124.23 562.02 123.93 560.97 C120.94 550.89 117.2 540.54 108.44 534.12 C101.48 531.85 93.08 531.48 87 536 Z M632 558 C631.62 564.01 631.71 569.76 635 575 C638.66 578.47 642.26 580.07 647 581.69 C648.79 582.31 648.79 582.31 650.62 582.95 C661.92 586.47 672.07 585.5 683 581 C687.78 578.4 692.59 575.3 696 571 C696 570.01 696 569.02 696 568 C696.66 567.67 697.32 567.34 698 567 C700.41 562.76 700.41 562.76 701 558 C696.86 557.79 696.86 557.79 693 559 C691.76 559.19 691.76 559.19 690.5 559.38 C687.61 559.89 685.17 560.59 682.41 561.51 C677.19 563.09 672.43 563.5 667 563.44 C666.1 563.43 665.2 563.43 664.28 563.43 C656.52 563.26 649.28 561.92 641.79 559.97 C638.52 559.13 635.33 558.49 632 558 Z M731.81 575 C727.29 578.51 722.68 581.33 717.62 584 C711.41 587.37 708.35 590.86 705 597 C703.56 599.2 702.1 601.39 700.62 603.56 C699.59 605.11 699.59 605.11 698.54 606.69 C698.03 607.45 697.52 608.22 697 609 C697.33 609.66 697.66 610.32 698 611 C698.89 611.04 698.89 611.04 699.79 611.08 C702.46 611.19 705.14 611.31 707.81 611.44 C708.74 611.48 709.67 611.52 710.63 611.56 C711.97 611.62 711.97 611.62 713.33 611.68 C714.15 611.72 714.98 611.76 715.82 611.79 C718 612 718 612 721 613 C723.1 609.4 725.18 605.8 727.25 602.19 C727.84 601.18 728.42 600.18 729.03 599.14 C734.17 590.15 738.8 581.57 738 571 C735.85 571 733.37 573.78 731.81 575 Z M632.88 586.5 C632.15 587.15 631.43 587.8 630.68 588.47 C630.13 588.97 629.57 589.48 629 590 C629.81 594.91 631.51 598.43 635 602 C638.21 604.24 641.54 606.17 645 608 C651.33 602.9 656.63 597.07 662 591 C658.94 587.94 654.9 587.92 650.76 587.23 C646.38 586.44 642.92 585.08 639 583 C636.06 583 635.02 584.56 632.88 586.5 Z M596.94 607.5 C596.02 607.96 595.1 608.43 594.15 608.91 C593.44 609.27 592.73 609.63 592 610 C592.14 612.52 592.29 615.04 592.44 617.56 C592.48 618.27 592.52 618.97 592.56 619.7 C592.44 627.44 592.44 627.44 595 634 C602.91 634.07 609.76 632.01 617 629 C616.17 628.01 615.35 627.02 614.5 626 C609.66 619.6 606.45 612.21 603 605 C600.9 605 598.76 606.58 596.94 607.5 Z M501 612 C497.21 612.69 493.39 613.04 489.56 613.44 C488.36 613.56 487.15 613.69 485.91 613.82 C458.63 616.52 431.2 617.91 403.81 618.96 C402.75 619 401.7 619.04 400.6 619.09 C365.94 620.41 331.26 621.09 296.59 621.87 C288.96 622.04 281.33 622.22 273.7 622.39 C268.98 622.5 264.25 622.61 259.53 622.72 C258.14 622.75 258.14 622.75 256.72 622.78 C254.87 622.82 253.01 622.87 251.15 622.91 C245.67 623.03 240.2 623.16 234.72 623.29 C218.26 623.69 201.8 624.04 185.33 624.1 C181.71 624.12 178.08 624.15 174.46 624.17 C171.24 624.18 168.03 624.16 164.81 624.13 C154.01 623.79 154.01 623.79 144.68 628.49 C142.73 630.47 142.73 630.47 142 633 C142.9 633.02 142.9 633.02 143.81 633.04 C160.96 633.43 178.11 633.82 195.25 634.22 C199.75 634.32 204.24 634.43 208.73 634.53 C240.57 635.26 272.41 636 304.25 637 C315.81 637.36 327.38 637.65 338.94 637.91 C341.7 637.97 344.46 638.04 347.22 638.1 C398.65 639.38 449.12 635.81 500.3 630.75 C508.73 629.92 517.16 629.15 525.6 628.39 C528.16 628.16 530.72 627.93 533.28 627.7 C534.46 627.59 535.65 627.48 536.87 627.37 C542.16 626.9 547.45 626.41 552.74 625.91 C553.59 625.83 554.44 625.75 555.32 625.67 C559.91 625.24 564.45 624.69 569 624 C569 621.36 569 618.72 569 616 C570.98 615.01 572.96 614.02 575 613 C575 612.67 575 612.34 575 612 C567.77 610.91 560.6 610.75 553.3 610.61 C552 610.59 550.69 610.56 549.35 610.54 C546.59 610.48 543.84 610.43 541.09 610.39 C537.58 610.33 534.06 610.25 530.55 610.18 C527.17 610.1 523.8 610.05 520.43 609.99 C518.55 609.94 518.55 609.94 516.62 609.9 C515.45 609.88 514.27 609.87 513.06 609.85 C512.03 609.83 511.01 609.81 509.95 609.79 C506.68 610.02 504.06 610.88 501 612 Z M640 613 C640 613.99 640 614.98 640 616 C640.66 615.01 641.32 614.02 642 613 C641.34 613 640.68 613 640 613 Z M580 614.44 C579.09 614.7 578.18 614.97 577.25 615.25 C575.06 615.8 575.06 615.8 574 617 C574.42 623.44 575.72 629.1 577.81 635.19 C578.06 635.96 578.31 636.72 578.56 637.51 C580.15 642.23 582.05 645.99 585 650 C586.82 647.26 587.52 645.67 588.25 642.56 C588.44 641.8 588.63 641.04 588.83 640.25 C589.03 637.57 588.39 636.27 587 634 C587.66 634 588.32 634 589 634 C588.54 626.81 587.75 620 586 613 C583.96 613 581.93 613.86 580 614.44 Z M550.62 628.73 C549.13 628.85 549.13 628.85 547.61 628.97 C544.37 629.23 541.12 629.49 537.88 629.75 C535.59 629.93 533.3 630.11 531.01 630.3 C501.21 632.68 471.41 635.2 441.63 637.92 C439.73 638.1 437.82 638.27 435.91 638.44 C433.29 638.68 430.67 638.92 428.05 639.17 C427.27 639.24 426.5 639.31 425.7 639.38 C422.63 639.67 419.93 640.02 417 641 C416.21 642.78 416.21 642.78 415.83 644.96 C415.66 645.76 415.49 646.56 415.31 647.39 C415.15 648.23 414.98 649.07 414.81 649.94 C414.64 650.77 414.46 651.61 414.28 652.47 C413.34 656.7 413.34 656.7 413 661 C432.74 659.52 452.43 657.66 472.12 655.69 C472.89 655.61 473.66 655.53 474.45 655.46 C525.62 653.82 525.62 653.82 574 642 C573.22 637.15 571.59 632.63 570 628 C563.49 627.92 557.1 628.21 550.62 628.73 Z M89 636 C89.74 638.21 90.49 640.42 91.25 642.62 C91.88 644.47 91.88 644.47 92.52 646.35 C95.03 652.69 95.03 652.69 100 657 C101.49 657.1 102.98 657.14 104.47 657.15 C105.42 657.16 106.36 657.17 107.33 657.18 C108.37 657.18 109.41 657.19 110.49 657.19 C112.13 657.2 112.13 657.2 113.81 657.21 C117.48 657.24 121.15 657.26 124.82 657.28 C127.39 657.3 129.97 657.32 132.55 657.34 C138.03 657.37 143.52 657.41 149 657.45 C157.57 657.5 166.13 657.56 174.69 657.63 C175.4 657.63 176.1 657.64 176.83 657.64 C180.36 657.67 183.9 657.69 187.43 657.72 C190.25 657.74 193.06 657.76 195.87 657.79 C265.94 658.31 336.01 659.55 406 663 C406.67 660.23 407.34 657.46 408 654.69 C408.19 653.9 408.38 653.12 408.58 652.31 C408.76 651.55 408.94 650.79 409.12 650.01 C409.29 649.32 409.46 648.62 409.63 647.9 C410.09 645.83 410.09 645.83 410 643 C393.59 642.32 377.19 641.86 360.77 641.54 C359.82 641.52 358.87 641.5 357.9 641.48 C352.93 641.38 347.97 641.28 343 641.18 C312.64 640.59 282.29 639.93 251.94 638.94 C224.93 638.06 197.94 637.4 170.92 637.04 C168.07 637 165.22 636.96 162.37 636.91 C158.12 636.85 153.87 636.8 149.61 636.77 C148.12 636.76 146.62 636.74 145.12 636.72 C137.44 636.6 130.8 637.02 123.47 639.31 C119.66 640.38 116 640.49 112.06 640.44 C111.3 640.43 110.53 640.43 109.74 640.43 C102.97 640.26 97.27 638.51 91 636 C90.34 636 89.68 636 89 636 Z M683.56 645.31 C682.66 647.19 681.8 649.08 681 651 C680.34 651.99 679.68 652.98 679 654 C679.31 656.15 679.31 656.15 680 658 C696.84 658.53 713.3 656.89 730 655 C725.6 651.65 720.96 648.78 716.22 645.94 C714.44 644.87 712.67 643.77 710.97 642.59 C704.94 638.76 696.79 638.48 689.86 639.43 C686.59 640.43 685.32 642.5 683.56 645.31 Z " fill="#000002" transform="translate(376,334)"/>
<path d="M0 0 C-0.41 2.93 -0.73 4.67 -2.62 7 C-4.27 8.92 -4.27 8.92 -3.7 11.36 C-1.49 19.68 3.03 24.59 10.12 29.34 C19.3 34.63 29.68 35.59 40.02 33.34 C46.61 31.2 51.99 27.76 57 23 C57.58 22.46 58.15 21.91 58.75 21.35 C60.72 17.64 60.2 13.99 60 9.88 C59.86 6.87 59.86 4.02 60 1 C61.49 0.01 61.49 0.01 63 -1 C65.59 -0.36 67.99 0.38 70.5 1.25 C82.91 5.19 95.05 6.16 108.02 5.82 C124.47 5.43 124.47 5.43 132 12 C134 13.44 136 14.88 138 16.31 C154.83 29.2 169.78 44.68 182 62 C182 62.33 182 62.66 182 63 C180.45 63.01 180.45 63.01 178.87 63.02 C169.14 63.07 159.42 63.15 149.69 63.24 C144.69 63.28 139.69 63.32 134.69 63.35 C129.86 63.37 125.04 63.41 120.22 63.46 C118.37 63.48 116.53 63.49 114.69 63.5 C112.11 63.51 109.54 63.54 106.96 63.57 C106.19 63.57 105.43 63.56 104.64 63.56 C100.6 63.62 100.6 63.62 97.05 65.35 C93.22 71.36 95.56 79.16 96.65 85.69 C97.26 89.36 97.83 93.02 98.41 96.69 C98.53 97.5 98.66 98.3 98.79 99.13 C100.48 109.93 101.95 120.75 103.45 131.58 C103.75 133.76 104.05 135.95 104.35 138.13 C105.12 143.71 105.89 149.29 106.66 154.86 C107.75 162.76 108.84 170.65 109.93 178.55 C110.5 182.72 111.08 186.9 111.65 191.07 C111.79 192.03 111.92 193 112.06 194 C112.32 195.89 112.58 197.79 112.83 199.68 C113.46 204.42 114.19 209.12 115.08 213.82 C115.24 214.76 115.41 215.7 115.58 216.68 C115.9 218.46 116.24 220.23 116.62 222 C117.25 225.63 117.57 227.95 115.77 231.25 C114.15 233.39 114.15 233.39 112.5 235.26 C110.75 237.12 110.75 237.12 109.46 240.39 C108 243 108 243 105.6 244.11 C104.62 244.32 103.64 244.53 102.62 244.75 C89.62 248.24 76.4 254.43 65.74 262.72 C64 264 64 264 61 265 C57.99 258.54 56.03 251.82 54 245 C44.49 246.24 35.13 247.9 25.73 249.8 C-14.17 257.84 -56.15 265.75 -97 265 C-97.33 264.34 -97.66 263.68 -98 263 C-97.18 261.24 -96.34 259.48 -95.45 257.75 C-85.55 238.64 -79.6 217.4 -74.06 196.69 C-59.12 140.82 -59.12 140.82 -43.21 118.03 C-41.74 115.97 -41.74 115.97 -42 113 C-43.32 113 -44.64 113 -46 113 C-46.28 113.73 -46.55 114.45 -46.84 115.2 C-47.94 117.86 -49.19 120.27 -50.61 122.77 C-51.12 123.68 -51.63 124.59 -52.15 125.53 C-53.2 127.39 -54.25 129.25 -55.3 131.11 C-62.41 143.87 -67.01 157.51 -71.44 171.38 C-71.67 172.11 -71.91 172.85 -72.16 173.6 C-75.19 183.04 -78.07 192.5 -80.69 202.06 C-91.65 242.07 -91.65 242.07 -101 260 C-101.55 261.06 -102.11 262.13 -102.68 263.22 C-105 266 -105 266 -108.33 266.76 C-109.62 266.76 -110.92 266.77 -112.25 266.77 C-112.95 266.78 -113.64 266.79 -114.36 266.8 C-116.57 266.83 -118.78 266.82 -121 266.81 C-123.21 266.83 -125.43 266.85 -127.64 266.87 C-129.65 266.89 -131.66 266.89 -133.67 266.89 C-136.35 266.98 -138.47 267.19 -141 268 C-141 268.99 -141 269.98 -141 271 C-105.19 269.46 -69.6 267.33 -34 263 C-33.21 262.9 -32.42 262.81 -31.6 262.71 C-10.76 260.16 9.76 256.22 30.29 251.86 C31.23 251.66 32.17 251.47 33.14 251.26 C34.91 250.89 36.68 250.52 38.44 250.13 C42.6 249.27 45.84 248.69 50 250 C55.54 271.25 60.71 292.55 65.12 314.06 C65.32 315.01 65.52 315.97 65.72 316.95 C66.29 319.66 66.84 322.38 67.38 325.1 C67.55 325.9 67.71 326.7 67.88 327.52 C68.79 332.11 69.16 336.33 69 341 C46.17 349.03 22.85 355.75 -0.88 360.57 C-2.32 360.86 -3.75 361.16 -5.19 361.47 C-17.64 364.12 -30.2 365.96 -42.81 367.69 C-43.59 367.8 -44.37 367.9 -45.18 368.02 C-62.66 370.43 -80 371.24 -97.62 371.25 C-98.55 371.25 -99.48 371.25 -100.43 371.25 C-114.15 371.24 -127.54 370.89 -141 368 C-141.81 367.83 -142.63 367.67 -143.46 367.5 C-155.26 365.01 -165.51 360.9 -176 355 C-176.86 354.52 -177.71 354.04 -178.59 353.55 C-184.98 349.78 -189.28 344.66 -194 339 C-194.82 338.28 -195.65 337.56 -196.5 336.81 C-207.7 324.21 -208.53 304.96 -208 289 C-207.55 284.13 -206.84 279.33 -206.06 274.5 C-205.9 273.49 -205.9 273.49 -205.74 272.47 C-197.45 220.81 -181.56 169.25 -157 123 C-156.63 122.29 -156.25 121.59 -155.87 120.86 C-145.36 101.18 -133.48 82.8 -118.24 66.43 C-116.38 64.41 -114.62 62.37 -112.88 60.25 C-110.23 57.13 -107.29 54.5 -104.17 51.86 C-102.7 50.6 -101.27 49.31 -99.86 47.98 C-78.74 28.08 -51.56 13.71 -24.13 4.7 C-21.94 3.98 -19.76 3.23 -17.59 2.48 C-16.16 2.01 -14.74 1.53 -13.31 1.06 C-12.34 0.73 -12.34 0.73 -11.35 0.38 C-7.2 -0.95 -4.22 -1.04 0 0 Z " fill="#408FE1" transform="translate(320,618)"/>
<path d="M0 0 C1.18 -0.01 2.36 -0.01 3.57 -0.02 C4.86 -0.01 6.16 -0.01 7.49 -0 C8.86 -0.01 10.24 -0.01 11.61 -0.02 C15.35 -0.02 19.08 -0.02 22.82 -0.01 C26.73 -0.01 30.63 -0.01 34.54 -0.02 C41.1 -0.02 47.66 -0.02 54.22 -0.01 C61.81 0 69.4 0 76.99 -0.01 C83.5 -0.02 90.01 -0.02 96.52 -0.02 C100.41 -0.01 104.3 -0.01 108.19 -0.02 C111.85 -0.02 115.51 -0.02 119.16 -0.01 C121.15 -0 123.13 -0.01 125.12 -0.02 C126.89 -0.01 126.89 -0.01 128.69 0 C130.23 0 130.23 0 131.8 0 C134.34 0.25 134.34 0.25 137.34 2.25 C137.66 4.71 137.77 6.92 137.76 9.39 C137.77 10.49 137.77 10.49 137.79 11.62 C137.81 14.09 137.82 16.56 137.82 19.02 C137.84 20.76 137.85 22.49 137.87 24.23 C137.9 27.92 137.92 31.61 137.94 35.31 C137.97 41.07 138.01 46.84 138.06 52.61 C138.08 54.52 138.1 56.43 138.11 58.35 C138.12 59.76 138.12 59.76 138.14 61.2 C138.16 64.04 138.18 66.88 138.2 69.72 C138.3 82.28 138.5 94.83 138.84 107.39 C139.25 122.79 139.5 138.19 139.58 153.59 C139.59 155.76 139.61 157.93 139.63 160.1 C139.66 163.08 139.67 166.06 139.67 169.04 C139.68 169.93 139.7 170.83 139.71 171.74 C139.71 172.56 139.7 173.38 139.7 174.22 C139.71 175.29 139.71 175.29 139.71 176.37 C139.21 178.93 138.41 179.68 136.34 181.25 C133.76 181.63 133.76 181.63 130.6 181.62 C129.4 181.63 128.2 181.63 126.97 181.64 C125.66 181.63 124.34 181.62 122.98 181.61 C121.59 181.61 120.19 181.61 118.79 181.62 C114.99 181.62 111.2 181.61 107.4 181.59 C103.43 181.58 99.46 181.58 95.49 181.58 C88.83 181.57 82.17 181.56 75.5 181.54 C66.94 181.51 58.38 181.5 49.81 181.49 C42.46 181.49 35.11 181.48 27.76 181.46 C25.39 181.46 23.03 181.45 20.66 181.45 C16.94 181.45 13.23 181.44 9.51 181.42 C7.49 181.42 5.47 181.41 3.45 181.41 C2.26 181.41 1.06 181.4 -0.16 181.39 C-1.21 181.39 -2.25 181.39 -3.32 181.39 C-5.66 181.25 -5.66 181.25 -6.66 180.25 C-6.78 178.83 -6.83 177.4 -6.85 175.97 C-6.87 175.04 -6.89 174.11 -6.91 173.16 C-6.92 172.13 -6.94 171.1 -6.95 170.05 C-6.97 168.97 -6.99 167.89 -7.01 166.78 C-7.08 163.17 -7.13 159.56 -7.19 155.95 C-7.23 153.4 -7.28 150.85 -7.32 148.3 C-7.41 142.9 -7.5 137.5 -7.59 132.1 C-7.69 125.36 -7.81 118.63 -7.92 111.9 C-8.22 94.68 -8.47 77.47 -8.66 60.25 C-8.66 59.57 -8.67 58.88 -8.68 58.17 C-8.77 49.21 -8.84 40.26 -8.88 31.3 C-8.9 28.72 -8.91 26.14 -8.94 23.55 C-8.97 20 -8.98 16.45 -8.98 12.9 C-8.99 11.85 -9.01 10.79 -9.02 9.7 C-9.02 8.74 -9.01 7.78 -9.01 6.8 C-9.01 5.96 -9.02 5.13 -9.02 4.27 C-8.9 3.6 -8.78 2.94 -8.66 2.25 C-5.23 -0.03 -4.02 0 0 0 Z M-1.66 5.25 C-1.66 25.88 -1.66 25.88 -1.47 46.49 C-1.45 47.94 -1.43 49.38 -1.41 50.82 C-1.36 54.64 -1.31 58.45 -1.25 62.27 C-1.19 66.3 -1.14 70.32 -1.08 74.35 C-0.98 81.92 -0.87 89.5 -0.76 97.08 C-0.62 107.35 -0.48 117.62 -0.33 127.89 C-0.11 144.01 0.12 160.13 0.34 176.25 C43.9 176.25 87.46 176.25 132.34 176.25 C131.78 119.22 130.78 62.27 129.34 5.25 C86.11 5.25 42.88 5.25 -1.66 5.25 Z " fill="#000002" transform="translate(612.655517578125,393.74603271484375)"/>
<path d="M0 0 C13.29 0.87 26.6 0.7 39.92 0.67 C43.65 0.66 47.39 0.66 51.12 0.66 C58.17 0.66 65.21 0.65 72.25 0.64 C80.29 0.63 88.32 0.62 96.35 0.62 C112.84 0.61 129.34 0.59 145.83 0.57 C146.16 2.22 146.49 3.87 146.83 5.57 C146.17 5.9 145.51 6.23 144.83 6.57 C144.82 7.7 144.82 8.83 144.81 10 C144.76 20.65 144.68 31.3 144.59 41.96 C144.55 47.43 144.51 52.91 144.48 58.39 C144.46 63.67 144.42 68.96 144.37 74.24 C144.35 76.26 144.34 78.28 144.33 80.29 C144.32 83.12 144.3 85.94 144.26 88.76 C144.26 89.6 144.27 90.43 144.27 91.3 C144.21 94.58 144.06 97.12 142.56 100.07 C137.55 104.42 128.13 102.53 121.94 102.13 C110.17 101.49 98.44 101.49 86.66 101.55 C61.06 101.68 35.49 101.36 9.9 100.72 C6.06 100.63 2.22 100.56 -1.63 100.58 C-5.66 100.57 -8.4 99.83 -12.17 98.57 C-12.17 95.57 -12.17 95.57 -11.17 94.57 C-9.52 84.67 -9.95 74.34 -9.85 64.34 C-9.83 62.49 -9.81 60.65 -9.79 58.8 C-9.74 53.98 -9.69 49.16 -9.64 44.34 C-9.59 39.4 -9.53 34.47 -9.48 29.54 C-9.37 19.88 -9.27 10.22 -9.17 0.57 C-6.18 -0.93 -3.25 -0.25 0 0 Z M8.83 8.57 C9.3 8.9 9.76 9.24 10.24 9.59 C18.38 15.45 26.51 21.31 34.58 27.26 C40.55 31.64 46.55 35.98 52.6 40.26 C54.67 41.74 56.72 43.25 58.75 44.78 C59.62 45.43 60.5 46.09 61.39 46.76 C62.14 47.33 62.88 47.9 63.65 48.49 C65.77 49.75 65.77 49.75 68.15 49.52 C71.82 48.22 74.95 46.24 78.21 44.13 C78.91 43.68 79.61 43.24 80.33 42.78 C85.67 39.37 90.93 35.85 96.18 32.32 C104.66 26.64 113.31 21.22 122.1 16.05 C122.79 15.64 123.48 15.23 124.19 14.81 C125.5 14.04 126.82 13.28 128.14 12.52 C131.18 10.74 132.83 9.57 134.83 6.57 C118.85 6.52 102.86 6.49 86.87 6.46 C79.45 6.45 72.03 6.44 64.61 6.42 C58.14 6.4 51.67 6.38 45.2 6.38 C41.78 6.38 38.35 6.37 34.93 6.36 C31.11 6.34 27.28 6.34 23.46 6.34 C22.32 6.33 21.18 6.33 20.01 6.32 C18.97 6.32 17.93 6.33 16.86 6.33 C15.5 6.33 15.5 6.33 14.12 6.32 C11.55 6.42 11.55 6.42 8.83 8.57 Z M-2.17 9.57 C-2.18 10.6 -2.19 11.63 -2.2 12.7 C-2.3 22.43 -2.4 32.15 -2.51 41.88 C-2.56 46.88 -2.62 51.88 -2.67 56.88 C-2.71 61.7 -2.77 66.53 -2.82 71.35 C-2.84 73.2 -2.86 75.04 -2.88 76.88 C-2.9 79.46 -2.93 82.03 -2.96 84.61 C-2.97 85.37 -2.98 86.14 -2.98 86.93 C-3.03 90.07 -3.17 92.57 -4.17 95.57 C23.91 96.7 52 96.88 80.09 97.1 C86.4 97.15 92.7 97.21 99 97.26 C111.28 97.37 123.55 97.47 135.83 97.57 C136.52 91.48 136.98 85.49 136.94 79.36 C136.94 78.24 136.94 78.24 136.94 77.08 C136.94 74.64 136.94 72.19 136.93 69.75 C136.93 68.04 136.92 66.32 136.92 64.61 C136.92 60.14 136.91 55.66 136.9 51.19 C136.89 46.61 136.88 42.03 136.88 37.45 C136.87 28.49 136.85 19.53 136.83 10.57 C133.05 12.44 129.44 14.36 125.89 16.64 C124.98 17.22 124.08 17.8 123.14 18.4 C122.19 19.01 121.25 19.63 120.27 20.26 C118.28 21.53 116.3 22.8 114.31 24.07 C113.36 24.68 112.41 25.29 111.43 25.91 C108.32 27.9 105.17 29.83 102.02 31.76 C96.21 35.3 90.51 38.99 84.83 42.71 C81.58 44.84 78.32 46.88 74.92 48.76 C71.79 50.32 71.79 50.32 70.21 52.76 C68.83 54.57 68.83 54.57 66.58 55.69 C62.77 55.52 61.41 53.78 58.7 51.24 C56.9 49.63 55.15 48.43 53.08 47.19 C48.83 44.63 44.86 41.73 40.86 38.79 C37.68 36.46 34.48 34.17 31.27 31.88 C25.59 27.83 19.93 23.77 14.27 19.69 C13.51 19.15 12.74 18.6 11.96 18.03 C8.89 15.82 5.89 13.62 2.99 11.19 C0.88 9.27 0.88 9.27 -2.17 9.57 Z " fill="#000002" transform="translate(1005.16943359375,601.431396484375)"/>
<path d="M0 0 C1.39 1.04 2.77 2.1 4.12 3.19 C5.17 3.94 5.17 3.94 6.24 4.71 C13.21 10.1 17.28 17.2 18.75 25.9 C19.19 31.2 19.38 35.99 18.12 41.19 C19.13 41.21 20.13 41.24 21.17 41.27 C36.08 41.81 49.3 44.68 59.88 55.94 C70.25 68.64 71 83.19 69.85 98.99 C69.01 106.97 67.49 113.42 63.12 120.19 C62.76 120.77 62.39 121.35 62 121.95 C55.73 130.54 44.97 132.94 35.06 134.74 C24.55 136.35 13.88 137.18 3.28 138.01 C1.71 138.14 0.14 138.29 -1.43 138.44 C-12.48 139.45 -23.53 139.37 -34.61 139.39 C-35.69 139.39 -36.77 139.4 -37.88 139.4 C-43.59 139.41 -49.31 139.42 -55.02 139.43 C-60.87 139.43 -66.72 139.46 -72.56 139.49 C-77.11 139.5 -81.66 139.51 -86.2 139.51 C-88.36 139.51 -90.51 139.52 -92.66 139.54 C-129.32 139.75 -129.32 139.75 -144.12 130.06 C-150.78 123.1 -154.77 115.04 -155.25 105.38 C-155.06 97.39 -151.95 90.45 -146.5 84.65 C-141.41 80.08 -135.33 78.12 -128.88 76.19 C-129.37 75.2 -129.37 75.2 -129.88 74.19 C-132.11 67.49 -131.03 62.02 -128.26 55.71 C-122.61 45.43 -113.62 39.68 -102.81 35.81 C-94.89 33.52 -87.03 33.84 -78.88 34.19 C-78.85 33.44 -78.82 32.69 -78.8 31.91 C-78.17 20.57 -75.38 12 -66.88 4.19 C-49.38 -10.1 -19.15 -12.05 0 0 Z M-62.62 8.5 C-68.44 15.44 -71.02 20.71 -71 29.81 C-71 30.96 -71.01 32.11 -71.01 33.29 C-71.07 36.13 -71.07 36.13 -69.88 38.19 C-71.13 38.21 -72.39 38.23 -73.69 38.25 C-74.4 38.26 -75.1 38.27 -75.83 38.29 C-77.88 38.19 -77.88 38.19 -80.88 37.19 C-92.62 36.31 -103.46 37.45 -112.88 45.19 C-119.12 51.14 -123.44 56.71 -124.03 65.51 C-123.78 71.64 -121.23 75.04 -116.88 79.19 C-117.79 79.29 -118.71 79.38 -119.66 79.48 C-128.69 80.59 -135.81 81.63 -142.19 88.44 C-146.4 93.87 -148.2 98.65 -147.81 105.56 C-146.64 114.42 -144.16 121.12 -137 126.72 C-125.9 134.36 -113.17 134.62 -100.06 135.31 C-99.29 135.35 -98.53 135.4 -97.74 135.44 C-67.15 137.05 -36.53 136.44 -5.94 135.31 C-4.84 135.27 -3.73 135.23 -2.6 135.19 C19.83 134.52 19.83 134.52 41.69 129.88 C42.66 129.59 42.66 129.59 43.64 129.31 C49.9 127.33 54.65 123.87 57.88 118.06 C64.5 104.96 64.44 84.6 60.16 70.73 C55.98 60.5 50.52 53.97 40.44 49.44 C30.11 45.44 20.11 44.87 9.12 45.19 C9.61 44.16 9.61 44.16 10.11 43.11 C12.55 36.1 12.3 26.78 9.15 19.98 C2.83 8.95 -5.68 3.24 -17.9 -0.1 C-21.25 -0.9 -24.44 -1.55 -27.88 -1.81 C-28.83 -1.89 -28.83 -1.89 -29.8 -1.97 C-41.8 -2.5 -53.42 0.76 -62.62 8.5 Z " fill="#000002" transform="translate(947.875,362.8125)"/>
<path d="M0 0 C1.08 0.19 2.16 0.38 3.28 0.57 C6.58 1.23 9.81 2.04 13.06 2.88 C22.74 5.18 31.88 4.48 41.69 3.25 C41.36 9.85 41.03 16.45 40.69 23.25 C25.32 29.84 8.38 28.66 -7.31 23.25 C-10.14 22.07 -12.66 20.8 -15.31 19.25 C-11.37 5.12 -11.37 5.12 -7.31 0.25 C-4.57 -1.12 -3.01 -0.53 0 0 Z " fill="#4190E2" transform="translate(1024.3125,866.75)"/>
<path d="M0 0 C5.53 0.86 8.85 2 12.3 6.72 C12.3 7.71 12.3 8.7 12.3 9.72 C10.25 11.45 8.25 12.96 6.05 14.47 C5.09 15.13 5.09 15.13 4.12 15.8 C2.19 17.12 0.24 18.42 -1.7 19.72 C-2.73 20.43 -3.76 21.13 -4.81 21.86 C-17.07 29.75 -30.65 29.03 -44.7 28.72 C-43.36 26.03 -41.99 25.81 -39.27 24.59 C-29.78 19.94 -23.29 13.87 -17.39 5.14 C-12.52 -1.83 -8.04 -0.84 0 0 Z " fill="#4190E2" transform="translate(1098.703125,892.28125)"/>
<path d="M0 0 C1.12 1.13 1.12 1.13 2.26 2.28 C7.76 7.74 13.1 12.41 20 16 C20 16.99 20 17.98 20 19 C16.57 21.98 12.74 24.42 9 27 C8.39 27.48 7.78 27.95 7.14 28.45 C4.68 30.34 3.12 30.99 0 31.19 C-7.44 28.24 -10.53 20.53 -14 13.77 C-15 11 -15 11 -15.1 8.87 C-13.27 5.77 -10.1 4.69 -6.94 3.25 C-6.27 2.93 -5.61 2.62 -4.93 2.29 C-3.29 1.52 -1.65 0.76 0 0 Z " fill="#408FE1" transform="translate(998,928)"/>
<path d="M0 0 C0.7 -0 1.39 -0.01 2.11 -0.01 C6.6 -0 10.87 0.43 15.31 1.12 C16.3 1.12 17.29 1.12 18.31 1.12 C17.65 1.46 16.99 1.78 16.31 2.12 C15.64 4.12 14.98 6.12 14.31 8.12 C13.09 10.43 11.79 12.7 10.44 14.94 C10.1 15.52 9.76 16.11 9.41 16.71 C6.84 20.93 6.84 20.93 4.49 21.79 C2.07 22.16 -0.22 22.24 -2.67 22.22 C-3.61 22.22 -4.54 22.22 -5.5 22.21 C-6.96 22.2 -6.96 22.2 -8.44 22.19 C-9.42 22.18 -10.4 22.18 -11.42 22.17 C-13.84 22.16 -16.26 22.15 -18.69 22.12 C-19.02 21.47 -19.35 20.8 -19.69 20.12 C-18.48 17.78 -17.24 15.56 -15.88 13.31 C-12.93 8.42 -12.93 8.42 -10.55 3.24 C-8.73 -1.23 -4.15 -0.02 0 0 Z " fill="#4190E2" transform="translate(1077.6875,947.875)"/>
<path d="M0 0 C0.77 0.4 1.55 0.79 2.34 1.2 C7.41 3.51 11.85 3.99 17.38 4.18 C19.84 4.45 19.84 4.45 21.84 6.45 C21.5 9.07 21.06 11.52 20.47 14.08 C20.32 14.78 20.16 15.49 20.01 16.22 C19.63 17.97 19.24 19.71 18.84 21.45 C8.22 22 -3.11 20.31 -12.16 14.45 C-13.05 12.58 -13.05 12.58 -13.16 10.45 C-11.86 8.42 -11.86 8.42 -9.97 6.39 C-9.36 5.72 -8.74 5.05 -8.11 4.36 C-2.88 -0.73 -2.88 -0.73 0 0 Z " fill="#4190E2" transform="translate(1049.15625,827.546875)"/>
<path d="M0 0 C-0.75 1.94 -0.75 1.94 -2 4 C-5.36 5.22 -8.77 5.19 -12.32 5.3 C-13.6 5.34 -14.88 5.38 -16.21 5.42 C-17.61 5.46 -19.02 5.5 -20.42 5.54 C-21.88 5.58 -23.34 5.62 -24.81 5.67 C-27.88 5.76 -30.96 5.84 -34.04 5.93 C-37.9 6.04 -41.77 6.15 -45.64 6.27 C-63.1 6.79 -80.53 7.16 -98 7 C-98.33 5.68 -98.66 4.36 -99 3 C-89.33 0.56 -79.74 0.53 -69.82 0.33 C-67.97 0.29 -66.11 0.24 -64.25 0.2 C-60.38 0.11 -56.51 0.02 -52.63 -0.06 C-47.67 -0.16 -42.71 -0.28 -37.75 -0.4 C-33.92 -0.5 -30.1 -0.58 -26.27 -0.67 C-24.44 -0.71 -22.61 -0.75 -20.78 -0.8 C-18.23 -0.86 -15.67 -0.91 -13.12 -0.96 C-11.99 -0.99 -11.99 -0.99 -10.84 -1.02 C-7.08 -1.09 -3.65 -0.92 0 0 Z " fill="#000002" transform="translate(729,470)"/>
<path d="M0 0 C0 0.99 0 1.98 0 3 C-2.34 5.34 -2.83 5.27 -6.01 5.39 C-6.85 5.43 -7.69 5.47 -8.55 5.51 C-9.93 5.55 -9.93 5.55 -11.33 5.6 C-12.3 5.64 -13.26 5.68 -14.25 5.72 C-17.44 5.84 -20.63 5.95 -23.81 6.06 C-26.01 6.14 -28.21 6.23 -30.41 6.31 C-45.75 6.87 -61.09 7.32 -76.44 7.69 C-77.42 7.71 -78.4 7.74 -79.41 7.76 C-82.17 7.83 -84.93 7.89 -87.68 7.95 C-88.5 7.97 -89.32 7.99 -90.16 8.01 C-95.77 8.12 -95.77 8.12 -98 7 C-97.62 5.06 -97.62 5.06 -97 3 C-94.16 1.58 -91.7 1.79 -88.53 1.7 C-87.86 1.68 -87.2 1.66 -86.51 1.64 C-84.3 1.58 -82.08 1.52 -79.86 1.46 C-78.31 1.42 -76.75 1.38 -75.19 1.33 C-71.91 1.24 -68.63 1.16 -65.35 1.07 C-61.22 0.96 -57.08 0.85 -52.95 0.73 C-35.29 0.23 -17.66 -0.16 0 0 Z " fill="#000002" transform="translate(728,497)"/>
<path d="M0 0 C0 0.99 0 1.98 0 3 C-3.39 5.26 -4.73 5.29 -8.72 5.41 C-10.5 5.47 -10.5 5.47 -12.3 5.53 C-13.59 5.56 -14.88 5.6 -16.2 5.63 C-17.56 5.67 -18.92 5.72 -20.27 5.76 C-23.14 5.85 -26 5.93 -28.87 6.01 C-32.44 6.1 -36.01 6.21 -39.58 6.32 C-59.06 6.93 -78.51 7.12 -98 7 C-97.62 5.06 -97.62 5.06 -97 3 C-94.46 1.73 -92.56 1.8 -89.71 1.7 C-88.6 1.66 -87.49 1.62 -86.34 1.58 C-84.52 1.52 -84.52 1.52 -82.66 1.46 C-81.4 1.42 -80.13 1.38 -78.84 1.33 C-75.43 1.22 -72.02 1.11 -68.61 1 C-66.51 0.94 -64.41 0.87 -62.3 0.8 C-41.53 0.13 -20.78 -0.31 0 0 Z " fill="#000002" transform="translate(728,525)"/>
<path d="M0 0 C-0.76 1.96 -0.76 1.96 -2 4 C-5.1 4.58 -7.87 4.87 -11 5 C-11.94 5.05 -12.88 5.1 -13.86 5.15 C-17.1 5.31 -20.34 5.42 -23.58 5.54 C-24.79 5.58 -26 5.62 -27.24 5.67 C-29.8 5.76 -32.36 5.84 -34.92 5.93 C-38.73 6.06 -42.55 6.2 -46.36 6.34 C-63.25 6.93 -80.1 7.12 -97 7 C-97.33 5.68 -97.66 4.36 -98 3 C-95 1.5 -91.86 1.65 -88.56 1.5 C-87.74 1.46 -86.92 1.42 -86.07 1.38 C-57.38 0.07 -28.72 -0.14 0 0 Z " fill="#000002" transform="translate(728,440)"/>
<path d="M0 0 C5.89 3.23 9.89 8.04 11.94 14.44 C12.13 17.33 12.13 17.33 12.06 20.25 C12.04 21.23 12.03 22.2 12.01 23.21 C11.98 23.94 11.96 24.68 11.94 25.44 C11.61 24.78 11.28 24.12 10.94 23.44 C9.28 22.76 7.61 22.1 5.94 21.44 C4.18 20.35 2.45 19.21 0.74 18.03 C-0.22 17.37 -1.18 16.71 -2.18 16.03 C-3.17 15.34 -4.16 14.65 -5.19 13.94 C-6.19 13.25 -7.19 12.56 -8.22 11.85 C-10.08 10.57 -11.93 9.29 -13.78 8.01 C-15.53 6.8 -17.29 5.62 -19.06 4.44 C-18.06 1.44 -18.06 1.44 -14.94 -0.25 C-9.66 -2.27 -5.19 -2.29 0 0 Z " fill="#4190E2" transform="translate(1087.0625,764.5625)"/>
<path d="M0 0 C2.54 0.88 2.54 0.88 4.05 3.06 C7.68 11.73 10.77 20.33 9.54 29.88 C8.23 32.75 8.23 32.75 6.54 34.88 C6.13 35.45 5.72 36.03 5.29 36.62 C2.53 38.59 -0.13 38.64 -3.46 38.88 C-5.89 38.44 -5.89 38.44 -7.46 37.88 C-7.13 36.55 -6.8 35.24 -6.46 33.88 C-5.32 33.57 -4.19 33.26 -3.02 32.94 C0.33 32.25 0.33 32.25 1.54 30.88 C2.24 22.49 0.37 14.21 -3.59 6.74 C-4.46 4.88 -4.46 4.88 -4.46 0.88 C-2.46 -0.12 -2.46 -0.12 0 0 Z " fill="#000002" transform="translate(415.45703125,496.125)"/>
<path d="M0 0 C1.28 0 2.56 0.01 3.88 0.01 C5.15 0.01 6.43 0 7.75 0 C10.88 0.13 10.88 0.13 11.88 1.13 C12.04 6 11.74 10.33 10.88 15.13 C8.23 15.16 5.58 15.18 2.94 15.2 C1.81 15.21 1.81 15.21 0.65 15.22 C-1.27 15.23 -3.2 15.19 -5.12 15.13 C-6.12 14.13 -6.12 14.13 -6.31 10.38 C-6.26 5.23 -5.83 0.25 0 0 Z " fill="#4190E2" transform="translate(1137.125,829.8671875)"/>
<path d="M0 0 C1.33 0.02 1.33 0.02 2.7 0.05 C4.88 0.25 4.88 0.25 5.88 1.25 C5.81 3.21 5.67 5.17 5.5 7.12 C5.41 8.19 5.32 9.26 5.23 10.37 C4.88 13.25 4.88 13.25 3.88 16.25 C0.98 17.37 -1.8 17.36 -4.88 17.31 C-5.67 17.3 -6.47 17.29 -7.3 17.29 C-7.9 17.27 -8.5 17.26 -9.12 17.25 C-9.04 14.98 -8.93 12.71 -8.81 10.44 C-8.75 9.17 -8.7 7.91 -8.64 6.61 C-8.12 3.25 -8.12 3.25 -6.9 1.32 C-4.5 -0.13 -2.79 -0.08 0 0 Z " fill="#4190E2" transform="translate(1103.125,829.75)"/>
<path d="M0 0 C1.86 0 1.86 0 3.76 0 C5.12 0.01 6.48 0.01 7.84 0.02 C9.23 0.02 10.61 0.02 12 0.02 C15.65 0.02 19.31 0.03 22.96 0.04 C26.69 0.06 30.41 0.06 34.14 0.06 C41.45 0.08 48.77 0.09 56.08 0.11 C56.08 0.77 56.08 1.43 56.08 2.11 C53.36 3.48 51.21 3.23 48.16 3.23 C46.92 3.23 45.68 3.23 44.4 3.23 C43.04 3.22 41.68 3.22 40.32 3.21 C38.94 3.21 37.55 3.21 36.16 3.21 C32.51 3.2 28.86 3.19 25.2 3.18 C21.48 3.17 17.75 3.17 14.02 3.16 C6.71 3.15 -0.6 3.13 -7.92 3.11 C-7.92 2.45 -7.92 1.79 -7.92 1.11 C-5.19 -0.25 -3.05 -0.01 0 0 Z " fill="#000002" transform="translate(946.91845703125,852.886474609375)"/>
<path d="M0 0 C1.31 0.01 2.62 0.01 3.98 0.02 C7.38 0.19 7.38 0.19 10.38 1.19 C10.38 2.51 10.38 3.83 10.38 5.19 C6.63 7.06 1.97 6.08 -2.14 5.93 C-5.91 6.21 -7.61 7 -10.62 9.19 C-15.12 12.26 -15.12 12.26 -17.94 11.88 C-18.49 11.65 -19.05 11.42 -19.62 11.19 C-17.79 6.69 -14.76 3.29 -10.43 1.05 C-6.86 -0.05 -3.73 -0.04 0 0 Z " fill="#000002" transform="translate(374.625,458.8125)"/>
<path d="M0 0 C5.45 1.95 11.03 0.85 16.62 -0.06 C16.62 0.93 16.62 1.92 16.62 2.94 C9.15 6.32 1.4 7.64 -6.5 4.69 C-9.38 2.94 -9.38 2.94 -10.31 0.75 C-10.33 0.15 -10.35 -0.45 -10.38 -1.06 C-6.36 -2.4 -3.83 -1.71 0 0 Z " fill="#000002" transform="translate(367.375,503.0625)"/>
<path d="M0 0 C1.33 0 1.33 0 2.68 0 C5.51 0.01 8.35 0.02 11.18 0.04 C13.1 0.04 15.02 0.04 16.93 0.05 C21.64 0.06 26.35 0.08 31.05 0.1 C30.39 1.09 29.73 2.08 29.05 3.1 C26.08 3.36 23.31 3.45 20.33 3.39 C19.47 3.39 18.6 3.38 17.71 3.38 C14.95 3.36 12.19 3.32 9.43 3.29 C7.56 3.27 5.69 3.26 3.82 3.24 C-0.77 3.21 -5.36 3.16 -9.95 3.1 C-10.28 2.44 -10.61 1.78 -10.95 1.1 C-7.56 -0.59 -3.72 -0.02 0 0 Z " fill="#000002" transform="translate(992.9453125,826.90234375)"/>
<path d="M0 0 C0.7 0 1.39 0.01 2.11 0.01 C3.83 0.03 5.54 0.04 7.25 0.06 C7.25 1.05 7.25 2.04 7.25 3.06 C4.53 4.42 2.16 4.33 -0.88 4.5 C-6.08 4.86 -10.75 5.59 -15.75 7.06 C-16.41 6.07 -17.07 5.08 -17.75 4.06 C-11.47 0.78 -7.06 -0.09 0 0 Z " fill="#000002" transform="translate(432.75,454.9375)"/>
<path d="M0 0 C8.58 0 17.16 0 26 0 C25.67 0.99 25.34 1.98 25 3 C16.75 3 8.5 3 0 3 C0 2.01 0 1.02 0 0 Z " fill="#000002" transform="translate(962,898)"/>
<path d="M0 0 C0.33 0.66 0.66 1.32 1 2 C2.64 2.72 4.31 3.39 6 4 C6 4.66 6 5.32 6 6 C2.8 7.6 -0.54 7.64 -4 7 C-6.5 4.5 -6.5 4.5 -8 2 C-6.18 -1.63 -3.38 -1.24 0 0 Z " fill="#000002" transform="translate(371,554)"/>
<path d="M0 0 C0.78 0.04 1.57 0.08 2.38 0.12 C1.34 3.47 0.33 4.15 -2.81 5.88 C-6.45 7.29 -9.73 7.36 -13.62 7.12 C-13.62 6.46 -13.62 5.81 -13.62 5.12 C-13 4.93 -12.37 4.74 -11.73 4.54 C-10.91 4.28 -10.09 4.02 -9.25 3.75 C-8.44 3.49 -7.63 3.24 -6.79 2.98 C-3.83 1.81 -3.3 0.16 0 0 Z " fill="#000002" transform="translate(444.625,487.875)"/>
<path d="M0 0 C-0.33 1.32 -0.66 2.64 -1 4 C-7.75 5.12 -7.75 5.12 -10 4 C-9.67 3.01 -9.34 2.02 -9 1 C-6.04 -0.48 -3.26 -0.06 0 0 Z " fill="#000002" transform="translate(316,534)"/>
<path d="M0 0 C0.66 0.33 1.32 0.66 2 1 C1.67 1.99 1.34 2.98 1 4 C0.01 4 -0.98 4 -2 4 C-2 3.01 -2 2.02 -2 1 C-1.34 0.67 -0.68 0.34 0 0 Z " fill="#000002" transform="translate(1055,793)"/>
<path d="" fill="#4190E2" transform="translate(0,0)"/>
</svg>
